<svg xmlns="http://www.w3.org/2000/svg" width="342" height="270.001" viewBox="0 0 342 270.001">
  <path id="Exclusion_1" data-name="Exclusion 1" d="M342,270H0V0H342V270ZM104.639,116.849h0c.059.342-.009,35.824-.009,36.182v52.8a23.936,23.936,0,0,0,12.091,20.941,23.934,23.934,0,0,0,24.182,0l122.681-70.829a24.186,24.186,0,0,0,0-41.887L140.9,43.23a23.967,23.967,0,0,0-12.13-3.259,25.815,25.815,0,0,0-3.167.2,24.3,24.3,0,0,0-20.975,24v52.8C104.635,116.9,104.637,116.859,104.639,116.849Zm26.639,84.712h0V68.442L246.563,135,131.279,201.56Z" fill="#fff"/>
</svg>
