<svg xmlns="http://www.w3.org/2000/svg" width="16.442" height="16.998" viewBox="0 0 16.442 16.998">
  <path id="instagram_copy" data-name="instagram copy" d="M4.9,17A4.989,4.989,0,0,1,0,11.934V5.063A4.988,4.988,0,0,1,4.9,0h6.648a4.989,4.989,0,0,1,4.9,5.063v6.871A4.989,4.989,0,0,1,11.545,17ZM1.653,5.063v6.871A3.3,3.3,0,0,0,4.9,15.289h6.648a3.3,3.3,0,0,0,3.242-3.355V5.063a3.3,3.3,0,0,0-3.242-3.354H4.9A3.3,3.3,0,0,0,1.653,5.063ZM3.968,8.5A4.331,4.331,0,0,1,8.22,4.1a4.33,4.33,0,0,1,4.252,4.4A4.331,4.331,0,0,1,8.22,12.9,4.331,4.331,0,0,1,3.968,8.5Zm1.654,0a2.644,2.644,0,0,0,2.6,2.686,2.642,2.642,0,0,0,2.6-2.686,2.642,2.642,0,0,0-2.6-2.687A2.644,2.644,0,0,0,5.622,8.5Zm5.842-4.366a1.02,1.02,0,1,1,1.02,1.054A1.038,1.038,0,0,1,11.463,4.133Z" transform="translate(0)" fill="#8c95a3"/>
</svg>
