<svg xmlns="http://www.w3.org/2000/svg" width="16.253" height="12.043" viewBox="0 0 16.253 12.043">
  <g id="Group_1858" data-name="Group 1858" transform="translate(-134 -2284.076)">
    <g id="tick" transform="translate(134 2217.756)">
      <path id="Path_1248" data-name="Path 1248" d="M15.964,66.611a.99.99,0,0,0-1.4,0L5.2,75.97,1.692,72.459a.991.991,0,1,0-1.4,1.4L4.5,78.073a.991.991,0,0,0,1.4,0l10.06-10.06A.992.992,0,0,0,15.964,66.611Z" transform="translate(0 0)" fill="#b7e183"/>
      <path id="Path_1249" data-name="Path 1249" d="M251.744,66.611a.99.99,0,0,0-1.4,0l-6.832,6.832v2.8l8.233-8.233A.992.992,0,0,0,251.744,66.611Z" transform="translate(-235.78 0)" fill="#71de56"/>
    </g>
  </g>
</svg>
