<svg xmlns="http://www.w3.org/2000/svg" width="16.232" height="14.223" viewBox="0 0 16.232 14.223">
  <path id="twitter_copy" data-name="twitter copy" d="M1639.681,5862.612a6.284,6.284,0,0,1-1.913.565,3.567,3.567,0,0,0,1.464-1.987,6.3,6.3,0,0,1-2.115.871,3.22,3.22,0,0,0-2.431-1.132,3.467,3.467,0,0,0-3.33,3.59,3.9,3.9,0,0,0,.087.819,9.247,9.247,0,0,1-6.865-3.753,3.8,3.8,0,0,0-.451,1.806,3.676,3.676,0,0,0,1.48,2.989,3.128,3.128,0,0,1-1.507-.451v.045a3.538,3.538,0,0,0,2.671,3.522,3.167,3.167,0,0,1-.878.125,2.989,2.989,0,0,1-.627-.065,3.376,3.376,0,0,0,3.11,2.494,6.3,6.3,0,0,1-4.928,1.488,8.936,8.936,0,0,0,5.105,1.613c6.125,0,9.474-5.471,9.474-10.216,0-.157,0-.312-.01-.464a7.123,7.123,0,0,0,1.663-1.859Zm0,0" transform="translate(-1623.449 -5860.929)" fill="#8c95a3"/>
</svg>
